{"title":"G-Eazy Ft. Bebe Rexha - Me, Myself &amp; I [1080p]","uid":12862536,"size":88545020,"categoryP":"video","categoryS":"music_videos","magnet":"?xt=urn:btih:31c63a7a86cea37861898c5bfb173c72e20ff58d&amp;dn=G-Eazy+Ft.+Bebe+Rexha+-+Me%2C+Myself+%26amp%3B+I+%5B1080p%5D&amp;tr=udp%3A%2F%2Ftracker.leechers-paradise.org%3A6969&amp;tr=udp%3A%2F%2Fzer0day.ch%3A1337&amp;tr=udp%3A%2F%2Fopen.demonii.com%3A1337&amp;tr=udp%3A%2F%2Ftracker.coppersurfer.tk%3A6969&amp;tr=udp%3A%2F%2Fexodus.desync.com%3A6969","seeders":2,"leechers":1,"uploader":"MusicVideos-HQ","files":1,"time":1448753936,"description":"General\r\n\r\nFormat                         : MPEG-4\r\nFormat profile                 : Base Media\r\nCodec ID                       : isom\r\nFile size                      : 84.4 MiB\r\nDuration                       : 5mn 48s\r\nOverall bit rate               : 2 031 Kbps\r\nWriting application            : Lavf56.40.101\r\n\r\nVideo\r\nID                             : 1\r\nFormat                         : AVC\r\nFormat/Info                    : Advanced Video Codec\r\nFormat profile                 :   \r\nFormat settings, CABAC         : Yes\r\nFormat settings, ReFrames      : 3 frames\r\nCodec ID                       : avc1\r\nCodec ID/Info                  : Advanced Video Coding\r\nDuration                       : 5mn 48s\r\nBit rate                       : 1 900 Kbps\r\nWidth                          : 1 920 pixels\r\nHeight                         : 1 080 pixels\r\nDisplay aspect ratio           : 16:9\r\nFrame rate mode                : Variable\r\nFrame rate                     : 23.976 fps\r\nMinimum frame rate             : 23.974 fps\r\nMaximum frame rate             : 90 000.000 fps\r\nColor space                    : YUV\r\nChroma subsampling             : 4:2:0\r\nBit depth                      : 8 bits\r\nScan type                      : Progressive\r\nBits/(Pixel*Frame)             : 0.038\r\nStream size                    : 78.9 MiB (93%)\r\nColor range                    : Limited\r\nColor primaries                : BT.709\r\nTransfer characteristics       : BT.709\r\nMatrix coefficients            : BT.709\r\n\r\nAudio\r\nID                             : 2\r\nFormat                         : AAC\r\nFormat/Info                    : Advanced Audio Codec\r\nFormat profile                 : LC\r\nCodec ID                       : 40\r\nDuration                       : 5mn 48s\r\nBit rate mode                  : Constant\r\nBit rate                       : 126 Kbps\r\nChannel(s)                     : 2 channels\r\nChannel positions              : Front: L R\r\nSampling rate                  : 44.1 KHz\r\nCompression mode               : Lossy\r\nStream size                    : 5.22 MiB (6%)","torrent":{"xt":"urn:btih:31c63a7a86cea37861898c5bfb173c72e20ff58d","amp;dn":"G-Eazy+Ft.+Bebe+Rexha+-+Me%2C+Myself+%26amp%3B+I+%5B1080p%5D","amp;tr":["udp%3A%2F%2Ftracker.leechers-paradise.org%3A6969","udp%3A%2F%2Fzer0day.ch%3A1337","udp%3A%2F%2Fopen.demonii.com%3A1337","udp%3A%2F%2Ftracker.coppersurfer.tk%3A6969","udp%3A%2F%2Fexodus.desync.com%3A6969"],"infoHash":"31c63a7a86cea37861898c5bfb173c72e20ff58d","infoHashBuffer":{"type":"Buffer","data":[49,198,58,122,134,206,163,120,97,137,140,91,251,23,60,114,226,15,245,141]},"announce":[],"urlList":[]}}